<?xml version="1.0" standalone="no"?>
<!DOCTYPE svg PUBLIC "-//W3C//DTD SVG 20010904//EN"
 "http://www.w3.org/TR/2001/REC-SVG-20010904/DTD/svg10.dtd">
<svg version="1.0" xmlns="http://www.w3.org/2000/svg"
 width="355.000000pt" height="355.000000pt" viewBox="0 0 355.000000 355.000000"
 preserveAspectRatio="xMidYMid meet">

<g transform="translate(0.000000,355.000000) scale(0.100000,-0.100000)"
fill="#000000" stroke="none">
<path d="M521 1838 c-140 -447 -256 -819 -258 -826 -4 -10 30 -12 163 -10
l169 3 100 320 c55 176 104 328 107 338 5 10 18 17 33 17 23 0 25 -3 19 -22
-67 -207 -202 -653 -199 -658 3 -4 74 -8 158 -9 116 -2 156 1 164 11 16 20
184 567 189 618 7 57 -19 109 -63 130 -18 8 -32 18 -30 22 1 3 31 22 67 40
102 52 123 92 220 400 44 142 80 275 80 295 0 53 -32 100 -83 123 -38 18 -67
20 -312 20 l-271 0 -253 -812z m549 526 c0 -16 -103 -351 -120 -391 -9 -21
-39 -31 -52 -18 -5 6 107 376 123 408 12 21 49 23 49 1z"/>
<path d="M2392 2517 l-152 -82 -32 -102 -32 -102 -34 -3 -35 -3 -33 -105 c-19
-58 -34 -110 -34 -117 0 -6 12 -13 28 -15 15 -2 26 -7 26 -13 -1 -5 -59 -194
-129 -419 -70 -224 -127 -424 -127 -443 0 -42 27 -82 68 -102 33 -17 270 -29
284 -15 9 9 80 229 80 247 0 4 -20 7 -45 7 -25 0 -45 3 -45 8 0 10 219 713
226 723 3 5 27 9 53 9 l48 0 32 108 c18 59 32 112 32 117 0 6 -20 12 -45 15
l-44 5 54 170 c29 94 52 174 51 179 -8 24 -55 8 -195 -67z"/>
<path d="M1613 2225 c-104 -28 -199 -97 -246 -178 -14 -23 -79 -217 -146 -431
-145 -466 -147 -480 -68 -564 40 -42 108 -62 206 -62 91 1 149 13 215 46 119
60 170 126 221 288 19 60 35 113 35 118 0 4 -67 8 -149 8 l-150 0 -33 -102
c-30 -94 -35 -103 -58 -103 -30 0 -31 -7 14 137 l36 118 181 2 181 3 80 255
c68 217 79 263 75 308 -6 78 -59 138 -146 162 -51 14 -187 11 -248 -5z m77
-247 c0 -7 -17 -67 -37 -135 -28 -90 -43 -125 -57 -129 -36 -12 -36 12 4 140
22 70 40 130 40 132 0 2 11 4 25 4 14 0 25 -5 25 -12z"/>
<path d="M2823 2225 c-118 -32 -219 -109 -263 -199 -11 -24 -75 -217 -140
-428 -121 -387 -135 -451 -109 -501 24 -46 74 -88 123 -102 57 -17 180 -19
245 -4 111 25 217 100 263 186 15 27 81 222 147 435 132 420 140 462 100 527
-11 19 -30 42 -42 52 -55 47 -215 63 -324 34z m77 -239 c0 -9 -221 -712 -230
-734 -7 -17 -17 -22 -33 -20 -12 2 -21 8 -20 13 2 16 225 729 230 738 4 7 53
10 53 3z"/>
</g>
</svg>
